<svg width="14" height="18" viewBox="0 0 14 18" fill="none" xmlns="http://www.w3.org/2000/svg">
    <path d="M6.00147 16.9544L6.2689 16.2537L6.26378 16.2518L6.00147 16.9544ZM5.49971 10.5999H6.24971V9.8499H5.49971V10.5999ZM1.0739 10.1463L0.389901 10.4539L0.390597 10.4555L1.0739 10.1463ZM1.16465 9.29988L0.56465 8.84988L0.564114 8.85059L1.16465 9.29988ZM7.16473 1.29975L6.5649 0.849532L6.56473 0.849749L7.16473 1.29975ZM7.998 1.04534L7.73404 1.74736L7.73625 1.74819L7.998 1.04534ZM8.49975 7.39985H7.74975V8.14985H8.49975V7.39985ZM12.9263 7.85345L13.6103 7.5458L13.6096 7.54427L12.9263 7.85345ZM12.8356 8.69987L13.4356 9.14987L13.4363 9.14891L12.8356 8.69987ZM6.83548 16.7L6.23548 16.25L6.23481 16.2509L6.83548 16.7ZM6.24972 16.25C6.25489 16.25 6.26183 16.251 6.26889 16.2537L5.73404 17.6551C5.90461 17.7202 6.07955 17.75 6.24972 17.75V16.25ZM6.26378 16.2518C6.27099 16.2545 6.26858 16.2564 6.26241 16.2471C6.25615 16.2377 6.24971 16.2216 6.24971 16.2H4.74971C4.74971 16.8291 5.12405 17.4274 5.73915 17.657L6.26378 16.2518ZM6.24971 16.2V10.5999H4.74971V16.2H6.24971ZM5.49971 9.8499H1.74966V11.3499H5.49971V9.8499ZM1.74966 9.8499C1.75473 9.8499 1.75951 9.85072 1.76332 9.85191C1.76699 9.85305 1.76881 9.85422 1.76902 9.85436C1.76948 9.85467 1.76333 9.85065 1.7572 9.8371L0.390597 10.4555C0.627992 10.9801 1.14518 11.3499 1.74966 11.3499V9.8499ZM1.7579 9.83864C1.75172 9.8249 1.74863 9.80768 1.75058 9.78942C1.75251 9.77124 1.75879 9.75771 1.76519 9.74916L0.564114 8.85059C0.217516 9.31388 0.155235 9.93221 0.389902 10.4539L1.7579 9.83864ZM1.76465 9.74988L7.76473 1.74975L6.56473 0.849749L0.56465 8.84988L1.76465 9.74988ZM7.76457 1.74997C7.76975 1.74306 7.77047 1.74579 7.76255 1.74821C7.75894 1.74931 7.75409 1.75014 7.7484 1.74998C7.74251 1.74982 7.73745 1.74864 7.73404 1.74736L8.26195 0.343329C7.6351 0.107631 6.95392 0.331225 6.5649 0.849532L7.76457 1.74997ZM7.73625 1.74819C7.72917 1.74555 7.73125 1.7435 7.73713 1.75234C7.74317 1.76143 7.74975 1.77756 7.74975 1.79976H9.24975C9.24975 1.17159 8.8769 0.572333 8.25974 0.342499L7.73625 1.74819ZM7.74975 1.79976V7.39985H9.24975V1.79976H7.74975ZM8.49975 8.14985H12.2498V6.64985H8.49975V8.14985ZM12.2498 8.14985C12.2451 8.14985 12.2406 8.14908 12.2369 8.14793C12.2333 8.14683 12.2316 8.14569 12.2313 8.14554C12.2308 8.14518 12.2369 8.14913 12.243 8.16264L13.6096 7.54427C13.372 7.01921 12.8546 6.64985 12.2498 6.64985V8.14985ZM12.2423 8.1611C12.2482 8.17413 12.2514 8.19133 12.2494 8.21021C12.2474 8.22909 12.2409 8.24279 12.2348 8.25083L13.4363 9.14891C13.7814 8.68715 13.8453 8.06825 13.6103 7.5458L12.2423 8.1611ZM12.2356 8.24987L6.23548 16.25L7.43548 17.15L13.4356 9.14987L12.2356 8.24987ZM6.23481 16.2509C6.23129 16.2556 6.23024 16.255 6.23354 16.2534C6.23653 16.2519 6.24209 16.25 6.24972 16.25V17.75C6.71414 17.75 7.15249 17.5285 7.43615 17.1491L6.23481 16.2509Z" />
</svg>
