<svg width="13" height="16" viewBox="0 0 13 16" fill="none" xmlns="http://www.w3.org/2000/svg">
<path fill-rule="evenodd" clip-rule="evenodd" d="M5.6875 2.34391V7.39753C5.6875 7.86861 5.76103 8.29422 6.21563 8.47495C6.67144 8.65452 6.96272 8.55541 7.3125 8.22192L9.75 5.55721C10.4325 6.75007 11.375 8.60555 11.375 9.72961C11.375 12.3019 9.18856 14.3938 6.5 14.3938C3.81144 14.3938 1.625 12.3019 1.625 9.72961C1.625 7.39636 3.95688 4.46144 5.6875 2.34391ZM6.5 16C10.0848 16 13 13.2979 13 9.97521C13 7.72796 10.8918 4.73164 10.6513 4.39726C10.4715 4.14723 10.179 3.98557 9.85725 3.95545C9.53225 3.92633 9.21375 4.03276 8.98408 4.24464L7.3125 5.75745V0.938034C7.3125 0.901955 7.3125 0.890234 7.3125 0.433516C7.3125 0.157373 7.08444 -0.0669125 6.82179 0.0183538C6.18564 0.224874 5.63333 0.736815 5.63333 0.736815C5.63333 0.736815 0 5.59318 0 9.97521C0 13.2979 2.91525 16 6.5 16Z" />
</svg>
