<svg width="512" height="326" viewBox="0 0 512 326" fill="none" xmlns="http://www.w3.org/2000/svg">
<path d="M82.7817 321.333C92.9697 313.612 95.0258 299.015 87.3767 288.731C32.3091 214.701 32.3091 111.297 87.3767 37.2692C95.0273 26.9847 92.9697 12.3894 82.7817 4.6664C72.5952 -3.05506 58.1351 -0.979548 50.486 9.30487C-16.8287 99.7984 -16.8287 226.201 50.486 316.695C58.1428 326.992 72.606 329.047 82.7817 321.333Z" />
<path d="M429.218 321.334C439.386 329.041 453.851 327 461.514 316.695C528.829 226.202 528.829 99.799 461.514 9.30553C453.864 -0.978881 439.404 -3.05594 429.218 4.66706C419.03 12.3885 416.974 26.9854 424.623 37.2698C479.691 111.299 479.691 214.703 424.623 288.731C416.974 299.015 419.031 313.611 429.218 321.334Z"/>
<path d="M167.162 274.031C176.849 265.409 177.67 250.615 168.994 240.989C128.93 196.527 128.93 129.47 168.994 85.0105C177.668 75.3837 176.849 60.5902 167.162 51.9681C157.475 43.3476 142.591 44.1619 133.914 53.7886C106.886 83.7827 92 122.567 92 163C92 203.432 106.884 242.216 133.914 272.21C142.561 281.807 157.444 282.68 167.162 274.031Z" />
<path d="M344.838 274.031C354.569 282.691 369.45 281.794 378.087 272.211C405.114 242.217 420 203.432 420 163C420 122.568 405.116 83.7828 378.087 53.7887C369.412 44.1619 354.527 43.3476 344.838 51.9681C335.152 60.5903 334.331 75.3838 343.006 85.0105C383.071 129.472 383.071 196.529 343.006 240.989C334.331 250.617 335.15 265.409 344.838 274.031Z" />
<path d="M256 232C294.598 232 326 200.598 326 162C326 123.402 294.598 92 256 92C217.402 92 186 123.402 186 162C186 200.598 217.402 232 256 232ZM256 138.667C268.866 138.667 279.333 149.134 279.333 162C279.333 174.866 268.866 185.333 256 185.333C243.134 185.333 232.667 174.866 232.667 162C232.667 149.134 243.134 138.667 256 138.667Z" />
</svg>
